<?xml version="1.0" encoding="UTF-8"?>
<svg version="1.1" xmlns="http://www.w3.org/2000/svg" width="128" height="128">
<path d="M0 0 C42.24 0 84.48 0 128 0 C128 42.24 128 84.48 128 128 C85.76 128 43.52 128 0 128 C0 85.76 0 43.52 0 0 Z " fill="#191336" transform="translate(0,0)"/>
<path d="M0 0 C2.76088206 1.35917669 5.40408345 2.77946144 8.02270508 4.39672852 C8.88508789 4.92395508 9.7474707 5.45118164 10.63598633 5.99438477 C12.71020508 7.33422852 12.71020508 7.33422852 13.71020508 8.33422852 C13.87000945 10.78031849 13.96949955 13.20153909 14.02661133 15.65063477 C14.04739243 16.3816893 14.06817352 17.11274384 14.08958435 17.86595154 C14.15515532 20.20944508 14.2139994 22.5530539 14.27270508 24.89672852 C14.31588316 26.48202707 14.35949721 28.06731381 14.40356445 29.65258789 C14.51084427 33.54634889 14.61208998 37.44022624 14.71020508 41.33422852 C15.6512207 40.73352539 16.59223633 40.13282227 17.56176758 39.51391602 C18.81892295 38.74461198 20.07677269 37.97644182 21.33520508 37.20922852 C21.95266602 36.8109082 22.57012695 36.41258789 23.20629883 36.00219727 C26.50974376 34.02013031 28.139006 33.21343578 31.97045898 34.02368164 C32.8745752 34.45616211 33.77869141 34.88864258 34.71020508 35.33422852 C35.76981445 35.69516602 36.82942383 36.05610352 37.92114258 36.42797852 C41.57297389 38.05101466 43.96193682 39.40532291 46.71020508 42.33422852 C47.75424069 45.36245122 47.96694595 48.20756285 48.02270508 51.39672852 C48.05219238 52.17661133 48.08167969 52.95649414 48.11206055 53.76000977 C47.95747305 57.27295471 47.58737421 59.48425842 45.00952148 61.98217773 C42.64273241 63.58285082 40.21415044 64.95840156 37.71020508 66.33422852 C35.86723262 67.49388324 34.02880747 68.66079063 32.19458008 69.83422852 C30.28480063 71.00364141 28.3733231 72.17028544 26.46020508 73.33422852 C25.4934082 73.94395508 24.52661133 74.55368164 23.53051758 75.18188477 C22.5946582 75.7477832 21.65879883 76.31368164 20.69458008 76.89672852 C19.85636719 77.41364258 19.0181543 77.93055664 18.15454102 78.46313477 C15.71020508 79.33422852 15.71020508 79.33422852 13.23266602 78.66992188 C12.40025391 78.22914307 11.5678418 77.78836426 10.71020508 77.33422852 C9.85233398 76.88120361 8.99446289 76.42817871 8.1105957 75.96142578 C6.75224609 75.18883423 6.75224609 75.18883423 5.36645508 74.40063477 C4.36743164 73.8340918 3.3684082 73.26754883 2.33911133 72.68383789 C1.30657227 72.0940918 0.2740332 71.5043457 -0.78979492 70.89672852 C-2.33860352 70.01791016 -2.33860352 70.01791016 -3.91870117 69.12133789 C-6.7133943 67.53287038 -9.50649281 65.94257355 -12.28979492 64.33422852 C-13.15670456 63.91750885 -14.0236142 63.50078918 -14.91679382 63.07144165 C-17.28979492 61.33422852 -17.28979492 61.33422852 -17.8910675 58.92341614 C-17.87996445 57.97077377 -17.86886139 57.01813141 -17.85742188 56.03662109 C-17.85704422 54.95572708 -17.85666656 53.87483307 -17.85627747 52.76118469 C-17.83047104 51.59548447 -17.80466461 50.42978424 -17.77807617 49.22875977 C-17.76746407 47.43724739 -17.76746407 47.43724739 -17.75663757 45.60954285 C-17.72860795 41.7879725 -17.6658485 37.9678574 -17.60229492 34.14672852 C-17.57722337 31.55885902 -17.55440822 28.9709666 -17.53393555 26.38305664 C-17.4787529 20.0329492 -17.39503941 13.6836928 -17.28979492 7.33422852 C-15.09468178 5.93296451 -12.88798537 4.56461424 -10.66479492 3.20922852 C-10.04733398 2.8109082 -9.42987305 2.41258789 -8.79370117 2.00219727 C-5.4851377 0.01705918 -3.84178102 -0.77747954 0 0 Z " fill="#FBB800" transform="translate(50.289794921875,24.665771484375)"/>
<path d="M0 0 C0.58007812 0.39832031 1.16015625 0.79664063 1.7578125 1.20703125 C6.0639288 4.12751607 10.274163 6.81884446 15 9 C14.95174072 10.01312256 14.90348145 11.02624512 14.85375977 12.07006836 C14.69326181 15.86666042 14.63385009 19.6595535 14.60327148 23.45922852 C14.57634455 25.09596687 14.52280148 26.73250886 14.44116211 28.36743164 C14.00468675 36.36080296 14.00468675 36.36080296 16 44 C20.07285484 48.39896992 25.5847972 50.67114105 31 53 C32.51421001 54.51421001 32.21309856 55.92472768 32.31640625 58.03515625 C32.35830078 58.84404297 32.40019531 59.65292969 32.44335938 60.48632812 C32.48267578 61.33646484 32.52199219 62.18660156 32.5625 63.0625 C32.60568359 63.91650391 32.64886719 64.77050781 32.69335938 65.65039062 C32.79976702 67.76672037 32.90041731 69.88333813 33 72 C29.35812862 70.62690941 26.03802622 68.98986669 22.65625 67.06640625 C21.65722656 66.49986328 20.65820312 65.93332031 19.62890625 65.34960938 C18.59636719 64.75986328 17.56382813 64.17011719 16.5 63.5625 C15.46746094 62.97662109 14.43492188 62.39074219 13.37109375 61.78710938 C10.57640062 60.19864186 7.78330211 58.60834503 5 57 C4.13309036 56.58328033 3.26618073 56.16656067 2.3730011 55.73721313 C0 54 0 54 -0.60127258 51.58918762 C-0.59016953 50.63654526 -0.57906647 49.68390289 -0.56762695 48.70239258 C-0.5672493 47.62149857 -0.56687164 46.54060455 -0.56648254 45.42695618 C-0.54067612 44.26125595 -0.51486969 43.09555573 -0.48828125 41.89453125 C-0.47766914 40.10301888 -0.47766914 40.10301888 -0.46684265 38.27531433 C-0.43881302 34.45374398 -0.37605358 30.63362889 -0.3125 26.8125 C-0.28742845 24.2246305 -0.2646133 21.63673809 -0.24414062 19.04882812 C-0.18895798 12.69872068 -0.10524449 6.34946428 0 0 Z " fill="#C98300" transform="translate(33,32)"/>
<path d="M0 0 C0.33 0 0.66 0 1 0 C1.24453905 2.88012653 1.42157916 5.739478 1.5625 8.625 C1.63791016 9.43324219 1.71332031 10.24148437 1.79101562 11.07421875 C1.8847579 13.63650773 1.79272009 15.55630967 1 18 C-1.62160209 20.68757619 -4.69934602 22.2605273 -8 24 C-9.80302754 25.06652409 -11.60377122 26.13691757 -13.40234375 27.2109375 C-15.24546249 28.26899999 -17.09053299 29.32366952 -18.9375 30.375 C-19.88173828 30.92027344 -20.82597656 31.46554688 -21.79882812 32.02734375 C-22.69923828 32.54167969 -23.59964844 33.05601563 -24.52734375 33.5859375 C-25.74538696 34.28275635 -25.74538696 34.28275635 -26.98803711 34.99365234 C-29 36 -29 36 -31 36 C-31.33 30.06 -31.66 24.12 -32 18 C-29.69 17.01 -27.38 16.02 -25 15 C-23.10099791 13.98654293 -21.21861566 12.94123661 -19.35546875 11.86328125 C-18.34935547 11.28642578 -17.34324219 10.70957031 -16.30664062 10.11523438 C-14.20749576 8.90201539 -12.10854085 7.68846769 -10.00976562 6.47460938 C-8.51026367 5.61512695 -8.51026367 5.61512695 -6.98046875 4.73828125 C-6.07192139 4.21274658 -5.16337402 3.68721191 -4.22729492 3.14575195 C-2 2 -2 2 0 2 C0 1.34 0 0.68 0 0 Z " fill="#F9AC00" transform="translate(96,67)"/>
<path d="M0 0 C2.88910271 1.36973395 5.60123153 2.83171994 8.31640625 4.51953125 C9.62738281 5.32777344 9.62738281 5.32777344 10.96484375 6.15234375 C11.61710937 6.56226563 12.269375 6.9721875 12.94140625 7.39453125 C11.609026 11.39167199 9.82183659 12.05222953 6.25390625 14.20703125 C5.21878906 14.85285156 4.18367188 15.49867187 3.1171875 16.1640625 C-0.05859375 17.39453125 -0.05859375 17.39453125 -3.1171875 16.7890625 C-6.00629021 15.41932855 -8.71841903 13.95734256 -11.43359375 12.26953125 C-12.30757812 11.73070312 -13.1815625 11.191875 -14.08203125 10.63671875 C-14.73429687 10.22679687 -15.3865625 9.816875 -16.05859375 9.39453125 C-14.7262135 5.39739051 -12.93902409 4.73683297 -9.37109375 2.58203125 C-8.33597656 1.93621094 -7.30085938 1.29039063 -6.234375 0.625 C-3.05859375 -0.60546875 -3.05859375 -0.60546875 0 0 Z " fill="#FAC100" transform="translate(50.05859375,24.60546875)"/>
</svg>
